<?xml version="1.0" standalone="no"?>
<!DOCTYPE svg PUBLIC "-//W3C//DTD SVG 1.1//EN" "http://www.w3.org/Graphics/SVG/1.1/DTD/svg11.dtd" >
<!--
2013-9-30: Created.
-->
<svg>
<metadata>
Created by iconfont
</metadata>
<defs>

<font id="iconfont" horiz-adv-x="1024" >
  <font-face
    font-family="iconfont"
    font-weight="500"
    font-stretch="normal"
    units-per-em="1024"
    ascent="896"
    descent="-128"
  />
    <missing-glyph />
    
    <glyph glyph-name="xingxing" unicode="&#59166;" d="M1060.000771 423.963704 861.29453 253.688858c-12.510502-12.195656-18.220063-29.764861-15.264743-46.987471l46.921326-273.511289c3.668354-21.672787 0.005292-37.206076-17.766315-50.150483-10.055231-7.312896-22.01806-11.038133-33.986179-11.038133-9.18742 0-18.40659 2.195985-26.871716 6.64484L563.434261 13.870068c-15.465822 8.129114-33.939878 8.129114-49.401731 0L273.671358-121.353679c-19.476802-10.257632-43.055863-8.525979-60.888322 4.393293-17.771606 12.944407-31.966138 28.445947-28.235608 50.150483l57.472639 279.190425c2.956643 17.217318-2.754242 34.786523-15.264743 46.982179L17.492478 423.963704c-15.808448 15.348085-21.43996 38.317297-14.681352 59.24001 6.820783 20.918744 24.882101 36.146447 46.667333 39.330625l272.19899 47.767971c17.280817 2.512154 32.220131 13.363761 39.955026 29.025369l125.318001 264.453511C496.660434 883.515956 516.740471 896 538.759853 896c22.01806 0 42.042535-12.484044 51.81467-32.218808l120.396877-264.44822c7.730926-15.661608 22.675532-26.518507 39.960318-29.035952l277.108207-47.76268c21.729671-3.152429 39.84655-18.411881 46.610449-39.330625C1081.440731 462.281002 1075.720586 439.311789 1060.000771 423.963704"  horiz-adv-x="1078" />

    
    <glyph glyph-name="jianjie" unicode="&#59822;" d="M885.227104 831.912517c5.498926 0 8.998243-1.799649 10.697911-2.999414v-887.626636L545.89338 159.543839c-20.695958 12.897481-46.990822 12.897481-67.68678 0L128.074985-58.713533V828.913103c1.599688 1.199766 5.198985 2.999414 10.697911 2.999414h746.454208m0 64.087483H138.772896C97.580941 896 64.087483 867.205624 64.087483 831.912517v-911.721929c0-18.096466 11.697715-34.493263 30.594025-42.791642 8.098418-3.499317 16.796719-5.298965 25.39504-5.298966 11.597735 0 23.095489 3.099395 32.893575 9.198204l359.029877 223.956258 359.029877-223.856278c9.798086-6.098809 21.295841-9.198203 32.893575-9.198203 8.598321 0 17.296622 1.699668 25.39504 5.198985 18.896309 8.198399 30.594025 24.595196 30.594025 42.791642V831.912517c0 35.293107-33.493458 64.087483-74.685413 64.087483zM256.04999 575.862527h511.90002c17.696544 0 31.993751 14.297208 31.993751 31.993751s-14.297208 31.993751-31.993751 31.993751H256.04999c-17.696544 0-31.993751-14.297208-31.993751-31.993751s14.297208-31.993751 31.993751-31.993751zM256.04999 383.90002h511.90002c17.696544 0 31.993751 14.297208 31.993751 31.993751s-14.297208 31.993751-31.993751 31.993751H256.04999c-17.696544 0-31.993751-14.297208-31.993751-31.993751s14.297208-31.993751 31.993751-31.993751z"  horiz-adv-x="1024" />

    
    <glyph glyph-name="pinglun" unicode="&#58891;" d="M290.886887 541.319078c-37.765179 0-68.376337-31.763702-68.376338-70.930184s30.611158-70.930184 68.376338-70.930184 68.381338 31.763702 68.381338 70.930184-30.616159 70.930184-68.381338 70.930184z m273.536601 0c-37.760179 0-68.377588-31.763702-68.377588-70.930184s30.617409-70.930184 68.377588-70.930184c37.763929 0 68.381338 31.763702 68.381338 70.930184s-30.616159 70.930184-68.381338 70.930184z m273.535351 0c-37.760179 0-68.376337-31.763702-68.376337-70.930184s30.616159-70.930184 68.376337-70.930184c37.765179 0 68.478841 31.738701 68.478841 70.930184 0 39.185233-30.616159 70.930184-68.376337 70.930184h-0.102504zM974.697763 896H154.109211C78.583853 896 17.351536 832.477596 17.351536 754.124631v-532.016382c0-78.294213 62.61987-150.573198 139.869043-150.573198h208.430387c36.338875-38.701465 186.705815-194.372355 186.705815-194.372356a16.633129 16.633129 0 0 1 12.046706-5.170195 16.625629 16.625629 0 0 1 12.046706 5.170195c3.140119 3.297625 110.096666 124.809723 181.80813 194.372356h213.368074c77.272924 0 139.869043 72.278985 139.869043 150.573198V754.124631C1111.49419 832.418844 1050.261873 896 974.716514 896h-0.018751z m68.381338-673.891751c0-39.166482-32.867494-80.306789-71.491455-80.306789H761.892211c-25.415962 0-48.180573-26.094737-48.180574-26.094738l-147.280573-152.75953-147.258073 152.75953s-28.106064 26.094737-52.095721 26.094738H157.220579c-38.625212 0-71.492705 41.095305-71.492706 80.306789V754.124631c0 39.186483 30.616159 70.945185 68.381338 70.945185h820.588552c37.765179 0 68.381338-31.758702 68.381338-70.945185v-532.016382z m0 0"  horiz-adv-x="1493" />

    
    <glyph glyph-name="xingxing1" unicode="&#58888;" d="M552.686379 15.068696c-8.519645 8.519645-25.558935 8.519645-34.078581 8.519645-17.03929 0-25.558935 0-34.07858-8.519645l-233.438276-131.202534c-40.894296-25.558935-66.453232 0-57.933587 44.302154L237.45951 197.389102c0 25.558935-8.519645 52.8218-25.558935 69.861089L21.060524 459.794171c-34.07858 34.07858-25.558935 69.86109 25.558936 69.86109l257.293282 44.302154c25.558935 0 49.413942 25.558935 57.933586 44.302155L477.713502 861.92142c8.519645 17.03929 25.558935 34.07858 34.07858 34.07858s25.558935-8.519645 34.078581-34.07858l115.867173-243.66185c8.519645-17.03929 34.07858-44.302155 57.933587-44.302155l257.293282-44.302154c49.413942-8.519645 57.933587-44.302155 25.558935-69.86109L811.68359 267.250191c-17.03929-17.03929-25.558935-52.8218-25.558935-69.861089l40.894296-270.924715c8.519645-44.302155-17.03929-69.86109-57.933587-44.302154l-216.398985 132.906463z"  horiz-adv-x="1024" />

    
    <glyph glyph-name="chakan" unicode="&#59086;" d="M511.93856 32.18688c-253.08288 0-432.7168 226.34368-458.18752 352.14208 25.4016 125.72928 205.10464 352.14336 458.18752 352.14336 253.08544 0 432.7168-226.41408 458.1888-352.14336-25.40288-125.7984-205.10464-352.14208-458.1888-352.14208z m0 628.78976c-199.81184 0-348.54144-174.55232-379.58912-276.64768 31.04768-102.09664 179.77728-276.71936 379.58912-276.71936 199.81312 0 348.54528 174.62272 379.59168 276.71936-31.04768 102.09536-179.77856 276.64768-379.59168 276.64768z m0-427.56352c-84.384-0.07424-152.75136 67.52256-152.75136 150.91584 0 83.39584 68.43904 150.9184 152.75136 150.9184 84.38656 0 152.75392-67.52256 152.75392-150.9184 0-83.39328-68.43776-150.99008-152.75392-150.99008v0.07424z m0 226.41152c-42.12096 0-76.3392-33.8688-76.3392-75.49568s34.21696-75.49312 76.3392-75.49312c42.12352 0 76.34432 33.86624 76.34432 75.49312-0.00128 41.6256-34.2208 75.49568-76.34432 75.49568z m0 0"  horiz-adv-x="1024" />

    
    <glyph glyph-name="dianzan1" unicode="&#58883;" d="M782.036 448.35h-172.29c66.761 246.563-45.998 259.156-45.998 259.156-47.791 0-37.884-37.791-41.498-44.092 0-120.58-128.074-215.065-128.074-215.065v-341.946c0-33.754 45.998-45.91 64.042-45.91h258.866c24.363 0 44.202 63.892 44.202 63.892 64.043 217.77 64.043 282.564 64.043 282.564 0.001 44.993-43.293 41.398-43.293 41.398v0 0zM782.036 448.35zM323.472 448.237h-103.167c-21.306 0-21.635-20.927-21.635-20.927l21.306-344.864c0-21.95 21.987-21.95 21.987-21.95h89.291c18.602 0 18.437 14.52 18.437 14.52v347.069c0 26.486-26.221 26.151-26.221 26.151v0 0zM323.472 448.237z"  horiz-adv-x="1024" />

    
    <glyph glyph-name="location" unicode="&#58880;" d="M512.103132 575.879021a106.221743 106.221743 0 1 0-75.507022-31.354611A106.221743 106.221743 0 0 0 512.103132 575.879021m0 63.989002a170.850635 170.850635 0 1 1 120.939214-49.911422A169.570855 169.570855 0 0 1 512.103132 639.868023zM805.172761 771.685367a407.609942 407.609942 0 0 1-586.139257 0 431.285873 431.285873 0 0 1 0-599.576948L512.103132-128l293.069629 300.108419a431.285873 431.285873 0 0 1 0 599.576948z m-44.152411-557.344207l-248.917218-255.956007-248.917217 255.956007a365.377201 365.377201 0 0 0 0 508.712565 346.82039 346.82039 0 0 0 497.834435 0 365.377201 365.377201 0 0 0 0-508.712565z"  horiz-adv-x="1024" />

    
    <glyph glyph-name="dianhua" unicode="&#59253;" d="M760.32 232.96000000000004c-12.608 9.44-31.52 9.44-40.96-3.168l-72.48-69.312a33.504 33.504 0 0 0-37.792-6.304 817.12 817.12 0 0 0-185.92 138.624 817.12 817.12 0 0 0-138.624 185.92 33.504 33.504 0 0 0 6.304 37.792l72.48 72.48c12.608 12.608 12.608 28.352 3.136 40.96l-100.8 122.88s0 3.168-3.168 3.168a30.464 30.464 0 0 1-44.096 0L133.312 670.912c-40.96-40.96 63.04-236.32 245.76-422.208 182.72-185.92 381.248-286.72 422.208-245.76l85.056 85.056 3.168 3.168c9.44 12.608 9.44 34.656-6.304 44.096l-122.88 97.696z m-85.056 44.096c34.656 34.656 88.192 37.824 126.016 6.304l122.88-97.664c40.96-31.52 47.264-91.392 15.744-132.352-3.136-3.136-3.136-6.304-6.304-6.304l-85.056-85.056c-81.92-81.92-302.464 34.656-513.6 245.76C123.904 418.848 10.496 636.256 89.216 718.1759999999999l85.12 85.088c37.76 37.792 97.632 37.792 132.32 0l6.272-6.304 97.696-122.88c31.488-37.824 28.352-91.392-6.304-126.048l-53.568-53.568c34.656-56.704 72.48-107.136 116.576-151.232 44.128-44.128 94.528-81.92 151.232-116.576l56.736 50.4z"  horiz-adv-x="1024" />

    
    <glyph glyph-name="arrow-down" unicode="&#58881;" d="M558.7556385 184.15735160999998c-10.55772482-10.55772482-24.88606564-20.36132644-38.46028328-17.34483365-13.57421762-2.2623696-26.39431205 8.29535522-36.95203688 17.34483365L156.80797209 512.20094427c-16.59071043 16.59071043-16.59071043 43.73914569 0 60.32985609s43.73914569 16.59071043 60.32985612 0l303.91165022-312.20700542L825.71525183 572.5308003600001c16.59071043 16.59071043 43.73914569 16.59071043 60.32985611 0s16.59071043-43.73914569 0-60.32985609l-327.28946944-328.04359266z"  horiz-adv-x="1024" />

    
    <glyph glyph-name="arrow-left" unicode="&#58882;" d="M640.31135414 751.5c7.6771875 0 15.3553125-2.92875 21.21375-8.78625001 11.715-11.7159375 11.715-30.7115625 0-42.42749998L345.23791664 384 661.52510414 67.71281250000004c11.715-11.7159375 11.715-30.710625 0-42.42656249-11.716875-11.7159375-30.710625-11.7159375-42.42749999-1e-8l-337.5 337.5c-11.715 11.7159375-11.715 30.710625-1e-8 42.4265625l337.5 337.5c5.8584375 5.8584375 13.5365625 8.7871875 21.21375 8.7871875z"  horiz-adv-x="1024" />

    
    <glyph glyph-name="shoucang" unicode="&#58950;" d="M734.587 860.52c-87.964 0-169.52-44.274-223.696-117.091-53.594 72.817-135.732 117.09-223.696 117.09C128.743 860.52 0.001 719.545 0.001 546.53c0-103.11 46.021-175.927 83.304-234.182 107.77-169.52 379.235-379.817 390.886-388.555 11.068-8.738 23.884-12.816 36.7-12.816s25.632 4.078 36.7 12.816c11.65 8.738 282.533 219.618 390.886 388.555 37.283 58.255 83.303 131.072 83.303 234.182 0 173.015-128.741 313.99-287.193 313.99z"  horiz-adv-x="1024" />

    
    <glyph glyph-name="boda" unicode="&#58890;" d="M599.3472 778.376533a42.8032 42.8032 0 0 1-6.587733 0.750934c-19.6608 0.682667-36.864-11.6736-40.823467-29.4912-2.184533-9.659733-0.170667-19.524267 5.7344-27.784534 5.905067-8.260267 14.9504-13.9264 25.429333-15.872 84.48-16.042667 157.218133-61.576533 204.8-128.1024 47.547733-66.56 64.1024-146.090667 46.728534-223.880533-2.184533-9.693867-0.136533-19.524267 5.768533-27.784533 5.905067-8.260267 14.916267-13.892267 25.429333-15.906134a42.530133 42.530133 0 0 1 30.173867 5.3248 36.864 36.864 0 0 1 17.271467 23.4496c44.885333 200.8064-95.914667 397.9264-313.924267 439.296z m69.12-555.451733c2.389333-1.399467 55.330133-32.768 96.0512-71.236267 15.325867-14.574933 40.96-38.946133 40.277333-67.242666-0.546133-19.285333-12.3904-38.673067-36.181333-59.118934-5.905067-5.358933-58.88-50.926933-143.633067-50.926933a262.826667 262.826667 0 0 0-70.8608 10.069333 338.261333 338.261333 0 0 0-75.605333 32.0512c-99.1232 53.930667-175.616 123.357867-248.2176 225.1776C105.437867 416.699733 101.853867 566.5792 102.4 594.8416c0.2048 130.3552 118.101333 181.623467 131.515733 187.050667C252.450133 789.845333 268.629333 793.6 283.477333 793.6c7.133867 0 13.960533-0.887467 20.2752-2.6624 12.970667-3.652267 31.061333-13.038933 43.144534-37.239467 16.554667-32.836267 32.187733-79.872 42.871466-129.160533 11.264-51.131733-19.8656-65.501867-49.9712-79.36l-1.194666-0.477867s-53.248-20.48-62.634667-24.029866c-9.216-3.515733-13.994667-13.073067-10.8544-21.8112 21.504-59.938133 54.272-122.0608 94.8224-179.712a821.418667 821.418667 0 0 1 137.1136-151.4496 20.138667 20.138667 0 0 1 12.970667-4.642134l1.6384 0.068267a19.626667 19.626667 0 0 1 13.448533 6.724267c8.0896 9.557333 20.514133 23.381333 33.621333 34.884266 24.849067 21.777067 47.3088 32.324267 68.676267 32.324267 5.870933 0 11.6736-0.785067 17.271467-2.389333 5.358933-1.501867 13.994667-5.802667 23.790933-11.741867z m-168.618667 252.279467a40.174933 40.174933 0 0 0-25.429333 15.906133 34.304 34.304 0 0 0-5.802667 27.818667c4.027733 17.749333 21.1968 30.173867 40.8576 29.457066 2.184533-0.068267 4.4032-0.3072 6.587734-0.7168 93.184-17.7152 153.361067-101.956267 134.178133-187.835733a36.864 36.864 0 0 0-17.2032-23.415467 43.008 43.008 0 0 0-30.173867-5.290666 39.970133 39.970133 0 0 0-25.4976 15.872 34.304 34.304 0 0 0-5.7344 27.784533 78.984533 78.984533 0 0 1-13.380266 63.8976 92.194133 92.194133 0 0 1-58.368 36.522667z m41.745067 115.848533c-21.674667 4.130133-35.669333 23.722667-31.197867 43.656533 3.9936 17.8176 21.162667 30.242133 40.823467 29.525334 2.1504-0.1024 4.4032-0.341333 6.587733-0.750934 75.434667-14.336 140.288-54.8864 182.749867-114.312533 42.427733-59.392 57.2416-130.321067 41.6768-199.7824a36.693333 36.693333 0 0 0-17.237333-23.415467 42.222933 42.222933 0 0 0-30.208-5.3248c-21.6064 4.096-35.6352 23.6544-31.163734 43.656534 11.195733 50.107733 0.512 101.376-30.139733 144.247466-30.651733 42.871467-77.448533 72.157867-131.8912 82.500267z"  horiz-adv-x="1024" />

    
    <glyph glyph-name="daohang" unicode="&#58902;" d="M268.486447 239.603675L569.266698 860.611176s6.600194 23.925702 27.107938 24.161423c22.157793-1.414327 27.57938-23.57212 27.57938-23.57212l317.045014-614.525168s7.071636-20.389884 6.953775-16.971926c0.117861-13.67183-10.018151-24.043562-23.68998-24.161423-13.67183-0.117861-18.857696 4.950145-18.857696 4.950145L603.328411 371.136105 304.669651 204.127635s-5.068006-5.185866-18.739836-5.303727c-13.67183-0.117861-24.043562 10.018151-24.161423 23.68998 0.117861-3.535818 6.718054 17.089787 6.718055 17.089787z m0 0"  horiz-adv-x="1261" />

    
    <glyph glyph-name="shangdian" unicode="&#58903;" d="M512 384m-512 0a512 512 0 1 1 1024 0 512 512 0 1 1-1024 0ZM702.358974 360.369231c-10.502564 0-18.379487-7.876923-18.379487-17.066667v-120.779487c0-21.005128-15.753846-38.071795-34.133333-38.071795H372.841026c-18.379487 0-34.133333 17.066667-34.133334 38.071795v120.779487c0 9.189744-7.876923 17.066667-18.379487 17.066667-10.502564 0-18.379487-7.876923-18.379487-17.066667v-120.779487c0-39.384615 31.507692-72.205128 69.579487-72.205128h278.317949c38.071795 0 69.579487 32.820513 69.579487 72.205128v120.779487c1.312821 9.189744-6.564103 17.066667-17.066667 17.066667z m-40.697436 145.723077H362.338462c-10.502564 0-18.379487-7.876923-18.379488-17.066667 0-9.189744 7.876923-17.066667 18.379488-17.066667h298.010256c10.502564 0 18.379487 7.876923 18.379487 17.066667 0 9.189744-7.876923 17.066667-17.066667 17.066667z m101.08718-5.251282L761.435897 502.153846c0 1.312821-1.312821 2.625641-2.625641 3.938462l-38.071794 69.579487c-13.128205 26.25641-36.758974 40.697436-66.953847 40.697436H371.528205c-31.507692 0-49.887179-11.815385-65.641026-39.384616-1.312821-2.625641-3.938462-6.564103-6.564102-10.502564-3.938462-6.564103-9.189744-15.753846-14.441026-24.943589-22.317949-38.071795-22.317949-39.384615-23.630769-40.697436-5.251282-14.441026-5.251282-23.630769-5.251282-32.820513 0-38.071795 22.317949-73.517949 59.076923-91.897436h1.312821c15.753846-7.876923 32.820513-11.815385 52.51282-11.815385 26.25641 0 52.512821 9.189744 72.205128 24.94359 19.692308-15.753846 44.635897-24.94359 72.205129-24.94359 26.25641 0 51.2 9.189744 70.892307 24.94359 19.692308-15.753846 45.948718-24.94359 72.205128-24.94359 19.692308 0 38.071795 3.938462 53.825641 11.815385 36.758974 18.379487 59.076923 53.825641 59.076924 91.897436-1.312821 9.189744-1.312821 17.066667-6.564103 32.820513z m-30.194872-32.820513c0-26.25641-15.753846-49.887179-39.384615-63.015385-10.502564-5.251282-23.630769-7.876923-36.758975-9.189743-22.317949 0-44.635897 9.189744-59.076923 24.943589-3.938462 3.938462-7.876923 6.564103-13.128205 6.564103s-10.502564-2.625641-13.128205-6.564103c-14.441026-15.753846-35.446154-24.94359-57.764102-24.943589-22.317949 0-43.323077 9.189744-57.764103 24.943589-3.938462 3.938462-7.876923 6.564103-13.128205 6.564103s-10.502564-2.625641-13.128205-6.564103c-14.441026-15.753846-35.446154-24.94359-59.076923-24.943589-13.128205 0-24.94359 2.625641-35.446154 7.876923h-1.312821c-24.94359 13.128205-40.697436 36.758974-40.697436 63.015384 0 7.876923 0 11.815385 3.938462 21.005129 3.938462 7.876923 40.697436 69.579487 43.323077 73.517948v1.312821c9.189744 18.379487 17.066667 21.005128 32.820513 21.005128H656.410256c15.753846 0 26.25641-7.876923 34.133334-22.317949l40.697436-73.517948c1.312821-7.876923 1.312821-11.815385 1.31282-19.692308z m0 0"  horiz-adv-x="1024" />

    
    <glyph glyph-name="nan" unicode="&#58904;" d="M867.961905-28.038095c-99.961905-63.390476-216.990476-99.961905-343.771429-99.961905-138.971429 0-265.752381 43.885714-370.590476 117.028571-4.87619 21.942857-7.314286 46.32381-7.314286 70.704762V527.847619C146.285714 730.209524 309.638095 896 512 896s365.714286-165.790476 365.714286-368.152381v-468.114286c0-31.695238-4.87619-60.952381-9.752381-87.771428zM375.466667 618.057143c-51.2 0-92.647619-41.447619-92.647619-92.647619s41.447619-92.647619 92.647619-92.647619c51.2 0 92.647619 41.447619 92.647619 92.647619s-41.447619 92.647619-92.647619 92.647619z m46.323809-324.266667c0-51.2 41.447619-92.647619 92.647619-92.647619 51.2 0 92.647619 41.447619 92.647619 92.647619s-41.447619 92.647619-92.647619 92.647619c-51.2 0-92.647619-41.447619-92.647619-92.647619z m229.180953 324.266667c-51.2 0-92.647619-41.447619-92.647619-92.647619s41.447619-92.647619 92.647619-92.647619 92.647619 41.447619 92.647619 92.647619-43.885714 92.647619-92.647619 92.647619z"  horiz-adv-x="1024" />

    
    <glyph glyph-name="ditu" unicode="&#58905;" d="M1030.981818 451.490909L1070.545455-88.436364c0-13.963636-4.654545-25.6-13.963637-32.581818-6.981818-4.654545-13.963636-6.981818-20.945454-6.981818-6.981818 0-11.636364 4.654545-13.963637 4.654545l-246.690909 97.745455-225.745454-79.127273h-27.927273l-225.745455 79.127273-244.363636-97.745455c-9.309091-4.654545-11.636364-4.654545-16.290909-4.654545-6.981818 0-13.963636 4.654545-20.945455 6.981818-9.309091 6.981818-13.963636 20.945455-13.963636 32.581818l41.890909 539.927273c0 16.290909 9.309091 27.927273 25.6 32.581818l88.436364 25.6c18.618182 4.654545 34.909091-6.981818 41.890909-25.6 2.327273-18.618182-6.981818-37.236364-25.6-44.218182l-65.163637-18.618181L74.472727-34.909091l207.127273 83.781818c6.981818 4.654545 16.290909 4.654545 25.6 0l228.072727-79.127272 228.072728 79.127272c6.981818 4.654545 16.290909 4.654545 25.6 0l207.127272-83.781818-32.581818 456.145455-32.581818 11.636363c-18.618182 4.654545-32.581818 25.6-25.6 44.218182 4.654545 18.618182 25.6 32.581818 41.890909 25.6l55.854545-18.618182c18.618182-4.654545 27.927273-18.618182 27.927273-32.581818z m-388.654545 169.890909c0-60.509091-46.545455-111.709091-111.709091-111.709091-60.509091 0-111.709091 51.2-111.709091 111.709091C418.909091 681.890909 467.781818 733.090909 530.618182 733.090909c62.836364 0 111.709091-51.2 111.709091-111.709091z m-146.618182 0c0-20.945455 18.618182-39.563636 39.563636-39.563636 20.945455 0 39.563636 18.618182 39.563637 39.563636 0 20.945455-18.618182 39.563636-39.563637 39.563637-20.945455 0-39.563636-18.618182-39.563636-39.563637zM535.272727 158.254545c-11.636364 0-20.945455 4.654545-25.6 11.636364-27.927273 27.927273-262.981818 281.6-262.981818 432.872727C246.690909 765.672727 374.690909 896 535.272727 896s288.581818-130.327273 288.581818-293.236364c0-151.272727-235.054545-404.945455-262.981818-435.2-6.981818-6.981818-16.290909-9.309091-25.6-9.309091z m0 665.6c-121.018182 0-221.090909-97.745455-218.763636-221.090909 0-93.090909 139.636364-272.290909 218.763636-358.4 79.127273 90.763636 218.763636 265.309091 218.763637 358.4 0 123.345455-97.745455 221.090909-218.763637 221.090909z m0 0"  horiz-adv-x="1070" />

    
    <glyph glyph-name="dianhua1" unicode="&#58906;" d="M806.200765-128c-62.330435 0-126.886957 20.034783-160.278261 31.165217-66.782609 22.26087-227.06087 126.886957-367.304347 260.452174C118.339896 317.217391 42.652939 506.434783 18.165983 579.895652-12.999235 675.617391 2.583374 720.13913 15.939896 753.530435L18.165983 762.434783c15.582609 44.521739 46.747826 75.686957 109.07826 111.304347C153.957287 889.321739 178.444243 896 200.705113 896c28.93913 0 46.747826-11.130435 57.878261-20.034783 24.486957-13.356522 100.173913-77.913043 129.113043-146.921739 37.843478-91.269565-2.226087-138.017391-13.356521-149.147826-6.678261-6.678261-11.130435-11.130435-17.808696-15.582609-11.130435-11.130435-22.26087-22.26087-33.391304-31.165217-2.226087-2.226087-4.452174-6.678261-2.226087-24.486956 6.678261-20.034783 84.591304-109.078261 120.208695-146.92174 151.373913-155.826087 189.217391-166.956522 193.669566-169.182608 22.26087-4.452174 33.391304 0 37.843478 4.452174l4.452174 6.678261c8.904348 11.130435 26.713043 31.165217 44.521739 46.747826 20.034783 15.582609 48.973913 20.034783 69.008696 20.034782 11.130435 0 46.747826-2.226087 66.782608-15.582608 2.226087-2.226087 8.904348-4.452174 15.582609-8.904348 31.165217-17.808696 86.817391-48.973913 120.208696-89.043479 48.973913-57.878261 31.165217-146.921739 6.67826-171.408695-2.226087-2.226087-4.452174-4.452174-6.67826-8.904348-8.904348-11.130435-22.26087-26.713043-69.008696-69.008696-28.93913-22.26087-69.008696-35.617391-117.982609-35.617391zM200.705113 826.991304c-6.678261 0-17.808696-2.226087-37.843478-13.356521C102.757287 780.243478 89.400765 757.982609 82.722504 737.947826l-2.226087-8.904348c-11.130435-26.713043-20.034783-53.426087 4.452174-126.886956 22.26087-69.008696 91.269565-247.095652 240.417392-389.565218 138.017391-131.33913 289.391304-229.286957 340.591304-244.869565 31.165217-8.904348 89.043478-28.93913 140.243478-28.93913 31.165217 0 55.652174 6.678261 71.234783 20.034782 44.521739 40.069565 53.426087 53.426087 62.330435 62.330435 4.452174 4.452174 6.678261 8.904348 11.130434 13.356522 4.452174 6.678261 15.582609 53.426087-8.904347 82.365217-24.486957 31.165217-73.46087 57.878261-100.173913 71.234783-8.904348 6.678261-17.808696 8.904348-22.26087 13.356522-2.226087 0-11.130435 2.226087-26.713044 2.226087s-24.486957-2.226087-26.713043-4.452174c-13.356522-11.130435-28.93913-28.93913-35.617391-37.843479l-6.678261-8.904347c-24.486957-26.713043-60.104348-35.617391-104.626087-26.713044-15.582609 4.452174-55.652174 13.356522-222.608696 182.53913-8.904348 8.904348-140.243478 142.469565-144.695652 191.443479-2.226087 31.165217 0 64.556522 31.165217 86.817391 8.904348 6.678261 15.582609 13.356522 24.486957 22.26087l17.808696 17.808695c8.904348 8.904348 15.582609 33.391304-2.226087 73.46087-20.034783 48.973913-82.365217 102.4-93.495653 109.078261-2.226087 6.678261-6.678261 8.904348-8.904347 11.130434-8.904348 4.452174-13.356522 6.678261-20.034783 6.678261z m0 0"  horiz-adv-x="1024" />

    
    <glyph glyph-name="duanxin" unicode="&#58907;" d="M293.843478 466.365217c-28.93913 0-53.426087-24.486957-53.426087-53.426087 0-28.93913 26.713043-53.426087 53.426087-53.426087 28.93913 0 53.426087 24.486957 53.426087 53.426087 2.226087 31.165217-24.486957 53.426087-53.426087 53.426087z m438.539131 0c-28.93913 0-53.426087-24.486957-53.426087-53.426087 0-28.93913 24.486957-53.426087 53.426087-53.426087 28.93913 0 53.426087 24.486957 53.426087 53.426087 2.226087 31.165217-20.034783 53.426087-53.426087 53.426087z m-220.382609 0c-28.93913 0-53.426087-24.486957-53.426087-53.426087 0-28.93913 26.713043-53.426087 53.426087-53.426087 28.93913 0 53.426087 24.486957 53.426087 53.426087 4.452174 31.165217-22.26087 53.426087-53.426087 53.426087z m474.156522 131.339131c-26.713043 55.652174-64.556522 106.852174-109.078261 149.147826-48.973913 44.521739-102.4 75.686957-162.504348 100.173913C652.243478 871.513043 583.234783 884.869565 516.452174 884.869565s-133.565217-13.356522-198.121739-37.843478C253.773913 822.53913 200.347826 786.921739 155.826087 744.626087c-51.2-44.521739-84.591304-93.495652-111.304348-149.147826-28.93913-55.652174-44.521739-115.756522-44.521739-180.313044 0-115.756522 44.521739-222.608696 129.113043-309.426087l22.26087-191.443478c0-13.356522 8.904348-22.26087 20.034783-28.93913 6.678261-2.226087 13.356522-2.226087 20.034782-2.226087 6.678261 0 13.356522 0 20.034783 2.226087l146.921739 80.13913c51.2-15.582609 104.626087-22.26087 160.278261-22.260869 66.782609 0 133.565217 13.356522 198.121739 37.843478 60.104348 22.26087 115.756522 55.652174 162.504348 100.173913 48.973913 44.521739 82.365217 93.495652 109.078261 149.147826 26.713043 55.652174 37.843478 117.982609 37.843478 180.313043-2.226087 69.008696-15.582609 126.886957-40.069565 186.991305z m-66.782609-336.139131c-22.26087-46.747826-53.426087-91.269565-93.495652-124.660869-42.295652-37.843478-86.817391-64.556522-140.243478-84.591305-53.426087-22.26087-111.304348-31.165217-173.634783-31.165217-51.2 0-102.4 8.904348-153.6 24.486957-8.904348 2.226087-20.034783 2.226087-28.93913-2.226087l-115.756522-62.330435-20.034783 149.147826c0 6.678261-2.226087 15.582609-8.904348 22.26087-71.234783 69.008696-111.304348 162.504348-111.304347 262.67826 0 53.426087 13.356522 106.852174 35.617391 153.6 22.26087 46.747826 53.426087 91.269565 93.495652 124.66087C244.869565 733.495652 289.391304 762.434783 342.817391 780.243478c53.426087 22.26087 111.304348 31.165217 173.634783 31.165218 60.104348 0 117.982609-8.904348 173.634783-31.165218 51.2-17.808696 100.173913-48.973913 140.243478-84.591304 42.295652-37.843478 71.234783-77.913043 93.495652-124.66087 22.26087-48.973913 35.617391-100.173913 35.617391-153.6-4.452174-53.426087-17.808696-106.852174-40.069565-155.826087z m0 0"  horiz-adv-x="1026" />

    
    <glyph glyph-name="duanxinpingbi" unicode="&#58908;" d="M986.156522 228.173913c-26.713043-57.878261-60.104348-109.078261-109.078261-153.6s-102.4-80.13913-162.504348-102.4c-64.556522-24.486957-131.33913-37.843478-198.121739-37.843478-53.426087 0-109.078261 6.678261-160.278261 22.260869l-146.921739-82.365217c-6.678261-2.226087-13.356522-2.226087-20.034783-2.226087-6.678261 0-13.356522 0-20.034782 2.226087-8.904348 6.678261-20.034783 15.582609-20.034783 28.93913l-22.260869 193.669566C44.521739 188.104348 0 297.182609 0 415.165217c0 66.782609 15.582609 126.886957 44.521739 184.765218 26.713043 57.878261 60.104348 109.078261 109.078261 153.6 44.521739 44.521739 100.173913 80.13913 162.504348 104.626087C380.66087 882.643478 447.443478 896 514.226087 896c69.008696 0 135.791304-13.356522 198.121739-37.843478 60.104348-24.486957 115.756522-57.878261 162.504348-102.4 44.521739-44.521739 82.365217-95.721739 109.078261-153.6 26.713043-60.104348 37.843478-120.208696 37.843478-189.217392 2.226087-62.330435-11.130435-126.886957-35.617391-184.765217z m-64.556522 345.043478c-22.26087 48.973913-51.2 89.043478-93.495652 126.886957-42.295652 35.617391-89.043478 66.782609-140.243478 86.817391-53.426087 22.26087-111.304348 31.165217-173.634783 31.165218-60.104348 0-117.982609-8.904348-173.634783-31.165218-53.426087-20.034783-100.173913-46.747826-140.243478-89.043478-37.843478-35.617391-71.234783-80.13913-93.495652-126.886957-22.26087-48.973913-35.617391-102.4-35.617391-155.826087 0-102.4 42.295652-198.121739 111.304347-267.130434 6.678261-6.678261 8.904348-15.582609 8.904348-22.26087l20.034783-153.6 115.756522 64.556522c8.904348 6.678261 20.034783 6.678261 28.93913 2.226087 51.2-15.582609 102.4-24.486957 153.6-24.486957 60.104348 0 117.982609 8.904348 173.634783 31.165218 53.426087 20.034783 100.173913 48.973913 140.243478 86.817391 37.843478 35.617391 71.234783 80.13913 93.495652 126.886956 22.26087 51.2 35.617391 104.626087 37.843478 160.278261 2.226087 51.2-11.130435 102.4-33.391304 153.6z m-184.765217-329.460869H287.165217c-22.26087 0-40.069565 17.808696-40.069565 40.069565s17.808696 40.069565 40.069565 40.069565h449.669566c22.26087 0 40.069565-17.808696 40.069565-40.069565 2.226087-22.26087-15.582609-40.069565-40.069565-40.069565z m0 204.8H287.165217c-22.26087 0-40.069565 17.808696-40.069565 40.069565s17.808696 40.069565 40.069565 40.069565h449.669566c22.26087 0 40.069565-17.808696 40.069565-40.069565 2.226087-22.26087-15.582609-40.069565-40.069565-40.069565z"  horiz-adv-x="1024" />

    
    <glyph glyph-name="dianzan" unicode="&#58909;" d="M804.329739-128H439.251478c-26.713043 0-53.426087 6.678261-77.913043 15.582609-42.295652 15.582609-66.782609 51.2-66.782609 100.173913v175.860869 291.617392c0 26.713043 17.808696 51.2 33.391304 64.556521 57.878261 51.2 122.434783 115.756522 146.92174 202.573913 6.678261 24.486957 11.130435 51.2 13.356521 77.913044 6.678261 55.652174 44.521739 93.495652 93.495652 93.495652 20.034783 0 40.069565-6.678261 57.878261-17.808696 37.843478-22.26087 64.556522-57.878261 77.913044-109.07826 22.26087-80.13913 11.130435-158.052174-2.226087-224.834783-2.226087-11.130435-4.452174-20.034783-6.678261-31.165217h198.121739c28.93913 0 69.008696-4.452174 95.721739-33.391305 17.808696-22.26087 24.486957-51.2 15.582609-89.043478-24.486957-120.208696-53.426087-240.417391-80.13913-351.721739-8.904348-35.617391-22.26087-66.782609-37.843479-97.947826l-6.678261-13.356522c-13.356522-33.391304-44.521739-53.426087-89.043478-53.426087z m-144.695652 80.13913h144.695652v-40.069565 40.069565c13.356522 0 13.356522 2.226087 15.582609 6.678261l6.678261 13.356522c13.356522 28.93913 26.713043 57.878261 33.391304 86.817391 26.713043 111.304348 57.878261 231.513043 80.13913 349.495653 4.452174 17.808696 2.226087 22.26087 2.226087 24.486956 0 0-6.678261 4.452174-31.165217 4.452174H659.634087c-13.356522 0-24.486957 4.452174-31.165217 15.582609-8.904348 8.904348-11.130435 22.26087-8.904348 33.391304l6.678261 26.713043c4.452174 17.808696 6.678261 33.391304 11.130434 48.973914 11.130435 57.878261 22.26087 124.66087 2.226087 189.217391-8.904348 31.165217-22.26087 48.973913-42.295652 60.104348-4.452174 2.226087-11.130435 4.452174-15.582609 4.452174-8.904348 0-11.130435-15.582609-11.130434-20.034783-2.226087-31.165217-6.678261-64.556522-15.582609-95.721739-31.165217-104.626087-104.626087-180.313043-171.408696-238.191305-2.226087-2.226087-4.452174-4.452174-6.678261-8.904347v-465.252174c0-17.808696 6.678261-22.26087 13.356522-24.486957 17.808696-6.678261 35.617391-11.130435 48.973913-11.130435h220.382609zM198.834087-128H114.242783c-53.426087 0-80.13913 24.486957-82.365218 75.686957-6.678261 115.756522-15.582609 231.513043-22.260869 349.495652-4.452174 42.295652-6.678261 84.591304-8.904348 126.886956v8.904348c-2.226087 20.034783 0 44.521739 17.808695 62.330435 17.808696 17.808696 42.295652 20.034783 64.556522 20.034782h97.947826c60.104348 0 89.043478-26.713043 89.043479-86.817391v-480.834782c0-8.904348 0-37.843478-20.034783-55.652174-11.130435-13.356522-28.93913-20.034783-51.2-20.034783z m-2.226087 77.913043l2.226087-37.843478-2.226087 37.843478c0 2.226087 0 2.226087 0 0z m-33.391304 2.226087h24.486956V257.113043v178.086957H83.077565v-8.904348l6.678261-126.886956c6.678261-115.756522 15.582609-231.513043 22.26087-347.269566h51.2z m0 0"  horiz-adv-x="1024" />

    


  </font>
</defs>
</svg>
